<svg id="Layer_1" data-name="Layer 1" xmlns="http://www.w3.org/2000/svg" viewBox="0 0 29.99994 29.99997"><defs><style>.cls-1{fill:#409b6c;}</style></defs><title>encircled_check_419b6c</title><path class="cls-1" d="M10.61023,13.775,15.583,18.74774,29.1236,5.20709a1,1,0,1,0-1.41419-1.41418L15.583,15.91922l-3.55847-3.55847A1,1,0,1,0,10.61029,13.775Z"/><path class="cls-1" d="M27.88837,13.28885A13.15241,13.15241,0,0,1,28,15,12.98928,12.98928,0,1,1,20.2522,3.10446a1,1,0,0,0,.80908-1.829A15.00228,15.00228,0,1,0,29.99994,15a15.13526,15.13526,0,0,0-.1286-1.9715,1,1,0,0,0-1.98291.26038Z"/></svg>