<svg width="101" height="30" viewBox="0 0 101 30" fill="none" xmlns="http://www.w3.org/2000/svg">
<path d="M19.487 15.7659C19.487 21.1269 15.955 24.7529 11.287 24.7529C10.3715 24.7935 9.45736 24.6466 8.60065 24.3213C7.74395 23.9959 6.96276 23.499 6.305 22.8609V29.9559H0V7.24789H6.307V8.63489C6.9694 8.00371 7.75148 7.51155 8.60713 7.18746C9.46278 6.86338 10.3747 6.71391 11.289 6.74789C15.956 6.71589 19.487 10.3739 19.487 15.7659ZM13.18 15.7659C13.2223 15.2875 13.165 14.8056 13.0118 14.3505C12.8587 13.8953 12.6129 13.4768 12.29 13.1213C11.9671 12.7659 11.5741 12.4811 11.1358 12.285C10.6974 12.0889 10.2232 11.9857 9.743 11.9819C9.26453 11.9957 8.79368 12.1053 8.35834 12.3043C7.923 12.5034 7.53203 12.7877 7.20856 13.1405C6.88509 13.4934 6.63571 13.9075 6.47518 14.3585C6.31465 14.8094 6.24624 15.288 6.274 15.7659C6.25243 16.2392 6.32556 16.7121 6.4891 17.1567C6.65263 17.6014 6.90329 18.009 7.22638 18.3555C7.54947 18.7021 7.93848 18.9807 8.37062 19.1749C8.80277 19.3692 9.26934 19.4753 9.743 19.4869C10.2199 19.4906 10.6924 19.3947 11.1301 19.2052C11.5678 19.0158 11.9611 18.7369 12.2848 18.3866C12.6085 18.0363 12.8554 17.6222 13.0097 17.1709C13.164 16.7196 13.2224 16.241 13.181 15.7659H13.18Z" fill="white"/>
<path d="M39.448 24.2529H33.141V22.5529C32.4931 23.2596 31.7028 23.8211 30.8222 24.2003C29.9416 24.5795 28.9907 24.7678 28.032 24.7529C24.185 24.7529 21.632 22.1039 21.632 17.7839V7.25293H27.97V16.4289C27.9303 16.7668 27.9629 17.1092 28.0656 17.4336C28.1683 17.7579 28.3388 18.0566 28.5657 18.3101C28.7927 18.5635 29.0709 18.7658 29.382 18.9035C29.6931 19.0412 30.0298 19.1113 30.37 19.1089C32.041 19.1089 33.176 17.8479 33.176 15.4829V7.25293H39.483V24.2529H39.448Z" fill="white"/>
<path d="M60.417 13.6859V24.2179H54.079V15.0419C54.1187 14.7041 54.0861 14.3616 53.9834 14.0373C53.8807 13.713 53.7102 13.4142 53.4832 13.1608C53.2563 12.9074 52.9781 12.7051 52.667 12.5673C52.3559 12.4296 52.0192 12.3596 51.679 12.3619C50.008 12.3619 48.873 13.5919 48.873 15.9879V24.2489H42.569V7.24892H48.876V8.94892C49.5232 8.24106 50.313 7.67838 51.1934 7.29797C52.0739 6.91756 53.0249 6.72804 53.984 6.74192C57.862 6.71692 60.417 9.39692 60.417 13.6859Z" fill="white"/>
<path d="M80.85 17.848C80.156 22.042 76.404 24.754 71.989 24.754C66.849 24.754 62.561 21.128 62.561 15.767C62.561 10.375 66.849 6.74902 71.989 6.74902C76.372 6.74902 80.03 9.39802 80.818 13.56L75.018 14.76C74.9383 14.0164 74.5837 13.3293 74.0237 12.8335C73.4638 12.3378 72.7388 12.069 71.991 12.08C71.523 12.0875 71.0614 12.1904 70.6346 12.3825C70.2078 12.5747 69.8247 12.8519 69.5088 13.1973C69.1929 13.5427 68.9509 13.9489 68.7975 14.3911C68.6442 14.8333 68.5827 15.3022 68.617 15.769C68.5832 16.2342 68.6452 16.7014 68.7991 17.1416C68.953 17.5819 69.1955 17.9859 69.5117 18.3288C69.8279 18.6716 70.2111 18.946 70.6375 19.1349C71.064 19.3238 71.5246 19.4232 71.991 19.427C72.7416 19.4242 73.4662 19.1522 74.0332 18.6604C74.6003 18.1686 74.972 17.4897 75.081 16.747L80.85 17.848Z" fill="white"/>
<path d="M100.906 13.685V24.217H94.568V15.041C94.6077 14.7031 94.5751 14.3607 94.4724 14.0364C94.3697 13.7121 94.1992 13.4133 93.9723 13.1599C93.7453 12.9064 93.4671 12.7042 93.156 12.5664C92.845 12.4287 92.5082 12.3587 92.168 12.361C90.497 12.361 89.362 13.591 89.362 15.987V24.249H83.058V0H89.365V8.955C90.0122 8.24714 90.802 7.68446 91.6825 7.30405C92.5629 6.92363 93.514 6.73412 94.473 6.748C98.351 6.716 100.906 9.4 100.906 13.685Z" fill="white"/>
</svg>
