<svg width="127" height="128" viewBox="0 0 127 128" fill="none" xmlns="http://www.w3.org/2000/svg">
<path d="M45.9495 77.7338C42.1767 79.7125 37.987 80.747 33.7342 80.75C29.4815 80.747 25.2918 79.7125 21.519 77.7338C17.8108 75.789 14.6122 72.9881 12.1838 69.5607C18.1054 64.2127 25.7786 61.2529 33.7342 61.2529C41.6899 61.2529 49.3631 64.2127 55.2847 69.5607C52.8563 72.9881 49.6577 75.789 45.9495 77.7338Z" fill="#F43E3E" stroke="white" stroke-width="0.5"/>
<path d="M59.7164 74.4135C63.9366 80.0542 66.2235 86.9289 66.2259 94.0001C66.2292 99.1997 65.0033 104.325 62.65 108.952C60.2967 113.579 56.8837 117.574 52.6938 120.606C48.5039 123.639 43.6577 125.622 38.5564 126.391C33.4552 127.159 28.2456 126.693 23.359 125.028C18.4724 123.364 14.0492 120.55 10.456 116.82C6.86269 113.09 4.20269 108.55 2.69641 103.578C1.19013 98.6046 0.880955 93.3415 1.79452 88.2242C2.68873 83.2152 4.72921 78.4871 7.75195 74.4145C10.7916 78.361 14.6774 81.5662 19.1203 83.7891C23.6619 86.0613 28.663 87.2458 33.7335 87.25H33.734C38.8045 87.2458 43.8056 86.0613 48.3472 83.7891C52.7905 81.566 56.6766 78.3605 59.7164 74.4135ZM48.643 109.026L48.6556 109.014L48.6606 109.007C48.9619 108.71 49.2025 108.356 49.3687 107.966C49.5377 107.57 49.6266 107.144 49.6303 106.712C49.634 106.281 49.5525 105.853 49.3904 105.454C49.2283 105.055 48.9889 104.692 48.6861 104.387C48.3832 104.081 48.023 103.84 47.6263 103.676C47.2296 103.513 46.8045 103.431 46.3758 103.434C45.9471 103.438 45.5235 103.528 45.1297 103.698C44.7367 103.868 44.3813 104.116 44.0841 104.425C41.3379 107.186 37.6177 108.736 33.7397 108.736C29.861 108.736 26.1403 107.186 23.394 104.424C22.7881 103.813 21.9659 103.47 21.1084 103.471C20.2508 103.471 19.4289 103.814 18.8232 104.425C18.2177 105.036 17.8779 105.863 17.8781 106.726C17.8783 107.588 18.2185 108.416 18.8243 109.026L18.8245 109.026C22.7817 113.005 28.1434 115.24 33.7337 115.24C39.3241 115.24 44.6858 113.005 48.643 109.026Z" fill="#F43E3E" stroke="white" stroke-width="0.5"/>
<path d="M99.2188 26.75H39.6875C38.965 26.75 38.2717 26.4607 37.7602 25.9452C37.2487 25.4297 36.9609 24.73 36.9609 24C36.9609 23.27 37.2487 22.5703 37.7602 22.0548C38.2717 21.5393 38.965 21.25 39.6875 21.25H99.2188C99.9412 21.25 100.635 21.5393 101.146 22.0548C101.658 22.5703 101.945 23.27 101.945 24C101.945 24.73 101.658 25.4297 101.146 25.9452C100.635 26.4607 99.9412 26.75 99.2188 26.75Z" fill="black" stroke="white" stroke-width="0.5"/>
<path d="M101.146 42.0548C101.658 42.5703 101.945 43.27 101.945 44C101.945 44.73 101.658 45.4297 101.146 45.9452C100.635 46.4607 99.9412 46.75 99.2188 46.75H39.6875C38.965 46.75 38.2717 46.4607 37.7602 45.9452C37.2487 45.4297 36.9609 44.73 36.9609 44C36.9609 43.27 37.2487 42.5703 37.7602 42.0548C38.2717 41.5393 38.965 41.25 39.6875 41.25H99.2188C99.9412 41.25 100.635 41.5393 101.146 42.0548Z" fill="black" stroke="white" stroke-width="0.5"/>
<path d="M61.7095 66.75C59.7147 64.6783 57.5008 62.8341 55.1079 61.25H99.2187C99.9412 61.25 100.635 61.5393 101.146 62.0548C101.658 62.5703 101.945 63.27 101.945 64C101.945 64.73 101.658 65.4297 101.146 65.9452C100.635 66.4608 99.9412 66.75 99.2187 66.75H61.7095Z" fill="black" stroke="white" stroke-width="0.5"/>
<path d="M71.9792 86.75C71.6283 84.8832 71.1419 83.0449 70.524 81.25H99.2192C99.9417 81.25 100.635 81.5392 101.146 82.0548C101.658 82.5703 101.946 83.27 101.946 84C101.946 84.73 101.658 85.4297 101.146 85.9452C100.635 86.4608 99.9417 86.75 99.2192 86.75H71.9792Z" fill="black" stroke="white" stroke-width="0.5"/>
<path d="M70.524 106.75C71.1419 104.955 71.6283 103.117 71.9792 101.25H99.2192C99.9417 101.25 100.635 101.539 101.146 102.055C101.658 102.57 101.946 103.27 101.946 104C101.946 104.73 101.658 105.43 101.146 105.945C100.635 106.461 99.9417 106.75 99.2192 106.75H70.524Z" fill="black" stroke="white" stroke-width="0.5"/>
<path d="M108.398 7V6.75H108.148H31.75C31.4199 6.75 31.1037 6.88218 30.8709 7.11681C30.6382 7.35138 30.5078 7.66911 30.5078 8V54.9214C28.6723 55.0754 26.85 55.3605 25.0547 55.7745V8C25.0547 6.20916 25.7606 4.49206 27.0164 3.22633C28.2722 1.96068 29.9749 1.25 31.75 1.25H119.062C120.838 1.25 122.54 1.96068 123.796 3.22633C125.052 4.49206 125.758 6.20916 125.758 8V120C125.758 121.791 125.052 123.508 123.796 124.774C122.54 126.039 120.838 126.75 119.062 126.75H55.1068C57.4967 125.165 59.7076 123.321 61.6996 121.25H108.148H108.398V121V7ZM113.852 121V121.25H114.102H119.062C119.393 121.25 119.709 121.118 119.942 120.883C120.174 120.649 120.305 120.331 120.305 120V8C120.305 7.66911 120.174 7.35138 119.942 7.11681C119.709 6.88218 119.393 6.75 119.062 6.75H114.102H113.852V7V121Z" fill="black" stroke="white" stroke-width="0.5"/>
</svg>
