<svg width="130" height="128" viewBox="0 0 130 128" fill="none" xmlns="http://www.w3.org/2000/svg">
<path d="M20.9445 17.0342L21.2747 17.3797L21.6461 17.0342C33.4995 6.39209 48.9623 0.497875 65.0001 0.508197C79.7824 0.49947 94.1187 5.49568 105.607 14.6597C117.095 23.8237 125.037 36.5986 128.101 50.844C131.166 65.0894 129.168 79.9396 122.441 92.9065C115.715 105.873 104.669 116.169 91.1536 122.068C77.6386 127.967 62.476 129.111 48.2066 125.309C33.9371 121.507 21.4277 112.989 12.7744 101.183C4.12114 89.3769 -0.15023 74.9998 0.676015 60.4608C1.50226 45.9217 7.37592 32.1041 17.3128 21.3232L17.643 20.9573L17.2922 20.6321L14.5683 17.9286L14.4445 17.7863H3.09533C2.75688 17.7876 2.42162 17.7217 2.10962 17.5924C1.79762 17.4632 1.51527 17.2733 1.27946 17.0342C1.03737 16.8013 0.844997 16.5231 0.713653 16.2159C0.58231 15.9087 0.514648 15.5787 0.514648 15.2454C0.514648 14.912 0.58231 14.5821 0.713653 14.2749C0.844997 13.9677 1.03737 13.6895 1.27946 13.4566C1.51527 13.2174 1.79762 13.0275 2.10962 12.8983C2.42162 12.7691 2.75688 12.7032 3.09533 12.7045H9.28581L8.41914 11.8304L1.27946 4.83788C1.03737 4.60499 0.844997 4.32677 0.713653 4.01958C0.58231 3.71238 0.514648 3.38242 0.514648 3.04909C0.514648 2.71576 0.58231 2.3858 0.713653 2.0786C0.844997 1.77141 1.03737 1.49319 1.27946 1.2603C1.51587 1.02182 1.79831 0.832318 2.11015 0.702933C2.422 0.573549 2.75696 0.506897 3.09533 0.506897C3.43371 0.506897 3.76867 0.573549 4.08052 0.702933C4.39236 0.832318 4.67479 1.02182 4.91121 1.2603L12.0096 8.25284L12.8969 9.10658V3.00844C12.9011 2.68188 12.9706 2.35935 13.1017 2.05935C13.2327 1.75936 13.4226 1.48781 13.6604 1.2603C13.8968 1.02182 14.1793 0.832318 14.4911 0.702933C14.8029 0.573549 15.1379 0.506897 15.4763 0.506897C15.8147 0.506897 16.1496 0.573549 16.4615 0.702933C16.7733 0.832318 17.0557 1.02182 17.2922 1.2603C17.535 1.49259 17.7277 1.77073 17.8589 2.07808C17.9901 2.38543 18.057 2.71568 18.0557 3.04909V14.229L18.2001 14.3916L20.9445 17.0342ZM21.6668 24.9414L21.2953 24.5552C19.0461 26.9538 -10.0285 58.1966 17.7049 98.4443C20.2719 101.815 23.2522 104.86 26.5779 107.51L30.7049 110.539C37.0321 115.434 44.3715 118.903 52.2064 120.703C53.7541 121.089 56.9937 121.678 58.5826 121.882L65.0001 122.471C74.6197 122.47 84.0947 120.164 92.608 115.752C101.121 111.34 108.417 104.954 113.866 97.1447C119.316 89.3357 122.755 80.338 123.887 70.9278C125.02 61.5175 123.811 51.9772 120.366 43.1295C116.921 34.2819 111.343 26.3926 104.113 20.142C96.883 13.8914 88.2178 9.46716 78.865 7.25089C69.5122 5.03461 59.7525 5.09282 50.4276 7.42047C41.1027 9.74813 32.4926 14.2754 25.3398 20.6117L24.9271 20.9776L25.3191 21.3435L31.9017 27.8279L32.2318 28.1734L32.6033 27.8482C42.1633 19.5398 54.6305 15.2227 67.3653 15.8111C80.1 16.3994 92.1023 21.8469 100.831 31.0002C109.56 40.1535 114.33 52.294 114.13 64.851C113.931 77.408 108.779 89.3958 99.7641 98.276C90.7494 107.156 78.5802 112.232 65.833 112.428C53.0858 112.624 40.7616 107.926 31.4697 99.327C22.1778 90.7285 16.6478 78.9052 16.0505 66.3604C15.4533 53.8156 19.8357 41.5343 28.2699 32.1169L28.6001 31.751L28.2493 31.4258L21.6668 24.9414ZM36.3382 31.4258L35.9049 31.7917L36.2969 32.1575L66.816 62.2417C67.2976 62.7161 67.5681 63.3596 67.5681 64.0305C67.5681 64.7014 67.2976 65.3449 66.816 65.8193C66.3344 66.2937 65.6812 66.5602 65.0001 66.5602C64.319 66.5602 63.6658 66.2937 63.1842 65.8193L32.6445 35.7555L32.2731 35.3692L31.9017 35.7961C24.4347 44.2838 20.6026 55.2947 21.2123 66.5101C21.822 77.7255 26.8259 88.2703 35.1704 95.9239C43.5149 103.578 54.5487 107.743 65.9485 107.542C77.3482 107.342 88.2243 102.792 96.2864 94.8501C104.349 86.9083 108.968 76.1944 109.171 64.9647C109.374 53.735 105.146 42.8658 97.3764 34.6457C89.6069 26.4257 78.9025 21.4964 67.5173 20.8958C56.132 20.2952 44.9544 24.0702 36.3382 31.4258Z" fill="black" stroke="white" stroke-width="0.5"/>
<path d="M31.8406 68.7667C30.8211 61.8225 32.0714 54.7389 35.4105 48.5412L46.5121 59.4569C45.7368 62.447 45.7172 65.5787 46.4552 68.578C47.1931 71.5773 48.6659 74.3527 50.7449 76.6614C52.8238 78.9701 55.4455 80.7417 58.3804 81.8211C61.3153 82.9006 64.4741 83.255 67.5803 82.8534C71.7697 82.3043 75.6614 80.4196 78.6613 77.487C81.6351 74.5591 83.5505 70.75 84.113 66.6454C84.6755 62.5408 83.854 58.3678 81.7748 54.7678C79.6955 51.1679 76.4737 48.3402 72.6044 46.7195C68.7351 45.0988 64.4326 44.7747 60.3581 45.797L49.2771 34.8814C54.1117 32.3257 59.5143 30.9917 65.001 30.9989C71.4227 30.9987 77.7092 32.8161 83.1124 36.2348C88.5156 39.6535 92.8078 44.5295 95.4783 50.2826C98.1487 56.0356 99.0849 62.4233 98.1754 68.6855C97.2659 74.9477 94.549 80.8206 90.3481 85.6052C86.1472 90.3898 80.6392 93.8846 74.4796 95.6737C68.3201 97.4628 61.7684 97.4708 55.6044 95.6968C49.4403 93.9228 43.9235 90.4414 39.7106 85.6671C35.4976 80.8928 32.7659 75.0266 31.8406 68.7667Z" fill="#FEBA2C" stroke="white" stroke-width="0.5"/>
</svg>
