<svg width="174" height="127" viewBox="0 0 174 127" fill="none" xmlns="http://www.w3.org/2000/svg">
<path d="M73.8299 60.6033H39.5672C39.5672 53.2671 36.8406 30.493 56.0927 30.493C56.602 30.508 57.1093 30.4209 57.5849 30.2379C58.0604 30.055 58.4947 29.779 58.8624 29.4265C59.2302 29.0739 59.5239 28.6518 59.7266 28.1846C59.9293 27.7174 60.0367 27.2157 60.0428 26.7065V4.86321C60.08 4.37551 60.0151 3.8855 59.8522 3.42428C59.6893 2.96306 59.4319 2.54162 59.0966 2.18532C58.7612 1.82902 58.3553 1.54578 57.9046 1.355C57.4538 1.16422 56.9682 1.06959 56.4788 1.07678C49.0638 0.671 41.649 1.87722 34.7453 4.61107C27.8416 7.34492 21.6133 11.5412 16.4896 16.9123C-1.8477 35.3714 1.18779 67.8916 1.18779 121.767C1.16599 122.842 1.56152 123.882 2.29142 124.671C3.02132 125.46 4.02881 125.937 5.10233 126H73.8418C74.9406 125.947 75.979 125.482 76.7497 124.697C77.5204 123.913 77.9669 122.866 78 121.767V64.3607C77.9734 63.8404 77.8443 63.33 77.6203 62.8595C77.3963 62.389 77.0816 61.9666 76.6943 61.6176C76.3071 61.2687 75.8548 61.0006 75.3633 60.8264C74.8718 60.6523 74.3507 60.5761 73.8299 60.6033Z" fill="#2349B6" stroke="#2349B6" stroke-width="1.5" stroke-linecap="round" stroke-linejoin="round"/>
<path d="M168.83 60.6033H134.567C134.567 53.2671 131.841 30.493 151.093 30.493C151.602 30.508 152.109 30.4209 152.585 30.2379C153.06 30.055 153.495 29.779 153.862 29.4265C154.23 29.0739 154.524 28.6518 154.727 28.1846C154.929 27.7174 155.037 27.2157 155.043 26.7065V4.86321C155.08 4.37551 155.015 3.8855 154.852 3.42428C154.689 2.96306 154.432 2.54162 154.097 2.18532C153.761 1.82902 153.355 1.54578 152.905 1.355C152.454 1.16422 151.968 1.06959 151.479 1.07678C144.064 0.671 136.649 1.87722 129.745 4.61107C122.842 7.34492 116.613 11.5412 111.49 16.9123C93.1523 35.3714 96.1878 67.8916 96.1878 121.767C96.166 122.842 96.5615 123.882 97.2914 124.671C98.0213 125.46 99.0288 125.937 100.102 126H168.842C169.941 125.947 170.979 125.482 171.75 124.697C172.52 123.913 172.967 122.866 173 121.767V64.3607C172.973 63.8404 172.844 63.33 172.62 62.8595C172.396 62.389 172.082 61.9666 171.694 61.6176C171.307 61.2687 170.855 61.0006 170.363 60.8264C169.872 60.6523 169.351 60.5761 168.83 60.6033Z" fill="#2349B6" stroke="#2349B6" stroke-width="1.5" stroke-linecap="round" stroke-linejoin="round"/>
</svg>
