<svg width="128" height="128" viewBox="0 0 128 128" fill="none" xmlns="http://www.w3.org/2000/svg">
<path d="M97.1175 55.112C93.5561 58.7032 88.4158 62.25 82 62.25C75.5842 62.25 70.4434 58.7021 66.8815 55.1105C63.3181 51.5174 61.3044 47.8505 61.1379 47.5405C60.883 47.067 60.7496 46.5377 60.7496 46C60.7496 45.4625 60.8829 44.9334 61.1375 44.4601M97.1175 55.112L102.64 47.422C102.876 46.9853 103 46.4966 103 46C103 45.5034 102.876 45.0147 102.64 44.578L102.86 44.4597C102.86 44.4596 102.86 44.4595 102.86 44.4594C102.693 44.1486 100.681 40.4822 97.1183 36.8895C93.5571 33.2978 88.4168 29.75 82 29.75C75.5832 29.75 70.4425 33.2968 66.8807 36.888C63.3175 40.4806 61.3043 44.1475 61.1375 44.4601M97.1175 55.112C100.679 51.521 102.692 47.8557 102.86 47.5403L97.1175 55.112ZM61.1375 44.4601C61.1375 44.4602 61.1375 44.4603 61.1374 44.4604L61.358 44.578L61.1379 44.4595C61.1378 44.4597 61.1376 44.4599 61.1375 44.4601ZM52 13.25H112C112.729 13.25 113.429 13.5397 113.945 14.0555C114.46 14.5712 114.75 15.2707 114.75 16V76C114.75 76.7293 114.46 77.4288 113.945 77.9445C113.429 78.4603 112.729 78.75 112 78.75H52C51.2707 78.75 50.5712 78.4603 50.0555 77.9445C49.5397 77.4288 49.25 76.7293 49.25 76V16C49.25 15.2707 49.5397 14.5712 50.0555 14.0555C50.5712 13.5397 51.2707 13.25 52 13.25Z" fill="#419B6C" stroke="white" stroke-width="0.5"/>
<path d="M73.0258 51.9581C70.6415 49.9241 68.8429 47.5298 67.8198 46C68.8438 44.4692 70.6414 42.0749 73.025 40.0412C75.4832 37.9439 78.5408 36.25 81.9995 36.25C85.4593 36.25 88.5173 37.9444 90.9755 40.0419C93.3591 42.0758 95.1562 44.4701 96.1793 46C95.1553 47.5307 93.3567 49.9251 90.9725 51.9588C88.5138 54.0561 85.4562 55.75 81.9995 55.75C78.5428 55.75 75.4848 54.0557 73.0258 51.9581ZM79.6384 49.5337C80.3373 50.0007 81.159 50.25 81.9995 50.25C83.1267 50.25 84.2077 49.8022 85.0047 49.0052C85.8018 48.2082 86.2495 47.1272 86.2495 46C86.2495 45.1594 86.0003 44.3377 85.5333 43.6388C85.0663 42.9399 84.4025 42.3952 83.6259 42.0735C82.8494 41.7518 81.9948 41.6677 81.1704 41.8317C80.346 41.9956 79.5887 42.4004 78.9943 42.9948C78.4 43.5892 77.9952 44.3464 77.8312 45.1709C77.6672 45.9953 77.7514 46.8498 78.073 47.6264C78.3947 48.403 78.9395 49.0667 79.6384 49.5337Z" fill="#419B6C" stroke="white" stroke-width="0.5"/>
<path d="M8 1.25H120C121.79 1.25 123.507 1.96116 124.773 3.22703C126.039 4.4929 126.75 6.20979 126.75 8V84C126.75 85.7902 126.039 87.5071 124.773 88.773C123.507 90.0388 121.79 90.75 120 90.75H8C6.20979 90.75 4.4929 90.0388 3.22703 88.773C1.96116 87.5071 1.25 85.7902 1.25 84V8C1.25 6.20979 1.96116 4.4929 3.22703 3.22703C4.4929 1.96116 6.20979 1.25 8 1.25ZM120.884 84.8839C121.118 84.6495 121.25 84.3315 121.25 84V8C121.25 7.66848 121.118 7.35054 120.884 7.11612C120.649 6.8817 120.332 6.75 120 6.75H8C7.66848 6.75 7.35054 6.8817 7.11612 7.11612C6.8817 7.35054 6.75 7.66848 6.75 8V84C6.75 84.3315 6.8817 84.6495 7.11612 84.8839C7.35054 85.1183 7.66848 85.25 8 85.25H120C120.332 85.25 120.649 85.1183 120.884 84.8839Z" fill="black" stroke="white" stroke-width="0.5"/>
<path d="M34 25.75H22C21.2707 25.75 20.5712 25.4603 20.0555 24.9445C19.5397 24.4288 19.25 23.7293 19.25 23C19.25 22.2707 19.5397 21.5712 20.0555 21.0555C20.5712 20.5397 21.2707 20.25 22 20.25H34C34.7293 20.25 35.4288 20.5397 35.9445 21.0555C36.4603 21.5712 36.75 22.2707 36.75 23C36.75 23.7293 36.4603 24.4288 35.9445 24.9445C35.4288 25.4603 34.7293 25.75 34 25.75Z" fill="black" stroke="white" stroke-width="0.5"/>
<path d="M22 68.25H34C34.7293 68.25 35.4288 68.5397 35.9445 69.0555C36.4603 69.5712 36.75 70.2707 36.75 71C36.75 71.7293 36.4603 72.4288 35.9445 72.9445C35.4288 73.4603 34.7293 73.75 34 73.75H22C21.2707 73.75 20.5712 73.4603 20.0555 72.9445C19.5397 72.4288 19.25 71.7293 19.25 71C19.25 70.2707 19.5397 69.5712 20.0555 69.0555C20.5712 68.5397 21.2707 68.25 22 68.25Z" fill="black" stroke="white" stroke-width="0.5"/>
<path d="M114.75 103V103.25H115H118C120.321 103.25 122.546 104.172 124.187 105.813C125.828 107.454 126.75 109.679 126.75 112C126.75 114.321 125.828 116.546 124.187 118.187C122.546 119.828 120.321 120.75 118 120.75H115H114.75V121V124C114.75 124.729 114.46 125.429 113.945 125.945C113.429 126.46 112.729 126.75 112 126.75H20.0034C19.409 126.733 18.8328 126.541 18.3472 126.198L2.35 114.2C2.00846 113.944 1.73125 113.612 1.54033 113.23C1.3494 112.848 1.25 112.427 1.25 112C1.25 111.573 1.3494 111.152 1.54033 110.77C1.73125 110.388 2.00846 110.056 2.35 109.8L18.3466 97.8026C18.8345 97.4627 19.4101 97.2709 20.0043 97.25H112C112.729 97.25 113.429 97.5397 113.945 98.0555C114.46 98.5712 114.75 99.2707 114.75 100V103ZM23 102.75H22.75V103V121V121.25H23H29H29.25V121V103V102.75H29H23ZM35 102.75H34.75V103V121V121.25H35H97H97.25V121V103V102.75H97H35ZM17.25 106V105.5L16.85 105.8L8.85 111.8L8.58333 112L8.85 112.2L16.85 118.2L17.25 118.5V118V106ZM109 121.25H109.25V121V103V102.75H109H103H102.75V103V121V121.25H103H109ZM114.75 115V115.25H115H118C118.862 115.25 119.689 114.908 120.298 114.298C120.908 113.689 121.25 112.862 121.25 112C121.25 111.138 120.908 110.311 120.298 109.702C119.689 109.092 118.862 108.75 118 108.75H115H114.75V109V115Z" fill="black" stroke="white" stroke-width="0.5"/>
<path d="M28 56.25H28.0003C30.4526 56.2473 32.8038 55.2719 34.5378 53.5378C36.2719 51.8037 37.2473 49.4526 37.25 47.0003V47C37.25 45.1705 36.7075 43.3821 35.6911 41.861C34.6747 40.3398 33.23 39.1542 31.5398 38.4541C29.8496 37.754 27.9897 37.5708 26.1954 37.9277C24.4011 38.2846 22.7529 39.1656 21.4593 40.4593C20.1656 41.7529 19.2847 43.4011 18.9277 45.1954C18.5708 46.9897 18.754 48.8496 19.4541 50.5398C20.1542 52.23 21.3398 53.6747 22.861 54.6911C24.3821 55.7075 26.1705 56.25 28 56.25ZM19.8053 34.7358C22.2309 33.1151 25.0827 32.25 27.9999 32.25C31.9106 32.2542 35.6599 33.8096 38.4252 36.5749C41.1905 39.3402 42.7458 43.0895 42.75 47.0003C42.75 49.9174 41.8849 52.7691 40.2642 55.1947C38.6434 57.6203 36.3398 59.5108 33.6446 60.6272C30.9494 61.7436 27.9836 62.0357 25.1224 61.4666C22.2612 60.8975 19.633 59.4926 17.5702 57.4298C15.5074 55.367 14.1026 52.7388 13.5334 49.8776C12.9643 47.0164 13.2564 44.0506 14.3728 41.3554C15.4892 38.6602 17.3797 36.3566 19.8053 34.7358Z" fill="black" stroke="white" stroke-width="0.5"/>
</svg>
