<svg width="127" height="128" viewBox="0 0 127 128" fill="none" xmlns="http://www.w3.org/2000/svg">
<path d="M39.6884 97.25C35.9142 97.2541 32.1813 96.4598 28.731 94.9186C25.3652 93.4151 22.3415 91.2336 19.8454 88.5093C17.4932 91.1046 14.6555 93.2079 11.4943 94.6977C8.32926 96.1893 4.90384 97.0358 1.41485 97.1895C2.19193 105.231 5.89305 112.702 11.8101 118.161C17.7912 123.679 25.6037 126.742 33.7115 126.748C41.8193 126.754 49.6364 123.703 55.6258 118.194C61.5484 112.747 65.2601 105.286 66.0516 97.25H39.6884ZM39.6884 97.25H39.6881V97L39.6884 97.25ZM24.5553 106V106C24.558 108.452 25.5255 110.803 27.2461 112.537C28.9669 114.271 31.3003 115.247 33.7347 115.25H33.7352C36.1696 115.247 38.503 114.271 40.2238 112.537C41.9444 110.803 42.9119 108.452 42.9146 106V106C42.9146 105.139 42.5752 104.312 41.9703 103.703C41.3654 103.093 40.5445 102.75 39.6881 102.75C38.8317 102.75 38.0108 103.093 37.4059 103.703C36.801 104.312 36.4615 105.139 36.4615 106C36.4615 106.73 36.1738 107.43 35.6622 107.945C35.1508 108.461 34.4575 108.75 33.735 108.75C33.0125 108.75 32.3192 108.461 31.8077 107.945C31.2961 107.43 31.0084 106.73 31.0084 106C31.0084 105.139 30.6689 104.312 30.0641 103.703C29.4591 103.093 28.6382 102.75 27.7818 102.75C26.9255 102.75 26.1046 103.093 25.4996 103.703C24.8947 104.312 24.5553 105.139 24.5553 106Z" fill="#2B5AFE" stroke="white" stroke-width="0.5"/>
<path d="M17.1629 81.4512L17.1626 81.451L17.1553 81.462C15.3769 84.1495 13.0038 86.3839 10.2231 87.9894C7.52695 89.5461 4.51887 90.4703 1.42237 90.6953C2.22612 82.6744 5.93904 75.2308 11.8543 69.7952C17.841 64.2938 25.6513 61.2466 33.7521 61.2511C41.8528 61.2556 49.6598 64.3114 55.6405 69.8193C61.5545 75.2658 65.2605 82.721 66.0516 90.75H39.688H39.6879C36.29 90.7518 32.9446 89.9045 29.951 88.2838C26.9574 86.6631 24.4089 84.3196 22.5337 81.4628L22.5298 81.4569L22.5256 81.4512C22.2143 81.031 21.8099 80.6896 21.3444 80.4544C20.8789 80.2192 20.3652 80.0967 19.8443 80.0967C19.3233 80.0967 18.8097 80.2192 18.3442 80.4544C17.8787 80.6896 17.4742 81.031 17.1629 81.4512Z" fill="#2B5AFE" stroke="white" stroke-width="0.5"/>
<path d="M87.3126 31.25C90.7938 31.2518 94.2211 30.3837 97.2878 28.7235C100.352 27.0645 102.961 24.6662 104.881 21.7433C105.146 21.388 105.488 21.0996 105.882 20.9007C106.278 20.7007 106.714 20.5967 107.156 20.5967C107.599 20.5967 108.035 20.7007 108.431 20.9007C108.825 21.0996 109.168 21.3881 109.432 21.7436C111.889 25.4582 115.44 28.3037 119.585 29.8797L119.99 30.0337L119.921 29.6059C118.884 23.2324 115.636 17.4365 110.754 13.2507C105.873 9.0648 99.6758 6.76098 93.2662 6.75L93.2655 6.75C86.6175 6.75928 80.2056 9.23356 75.2517 13.7008C70.2979 18.168 67.1484 24.3157 66.4029 30.9722L66.3718 31.25H66.6514H87.3126ZM87.3126 31.25L87.3127 31M87.3126 31.25H87.3127V31M87.3127 31H66.903L109.637 21.6C109.349 21.211 108.974 20.8951 108.544 20.6775C108.113 20.46 107.638 20.3467 107.156 20.3467C106.675 20.3467 106.2 20.46 105.769 20.6775C105.338 20.8951 104.964 21.211 104.676 21.6C102.778 24.4913 100.199 26.8632 97.1688 28.5036C94.1386 30.1441 90.7523 31.0018 87.3127 31ZM125.744 33.7338L125.744 33.7338L125.744 33.742C125.795 40.2311 123.932 46.589 120.392 52.0089C116.851 57.4288 111.794 61.6663 105.861 64.184C99.9277 66.7017 93.3863 67.3863 87.0667 66.1509C80.747 64.9156 74.9337 61.8159 70.3643 57.245C65.795 52.674 62.6756 46.8377 61.4024 40.4766C60.1292 34.1154 60.7596 27.5165 63.2136 21.5172C65.6675 15.5179 69.8342 10.3888 75.1847 6.78053C80.5352 3.1723 86.8284 1.24745 93.2657 1.25H93.2658C112.003 1.25 126.152 17.3006 125.744 33.7338ZM87.3129 36.75H87.3127H66.6514H66.6474H66.3684L66.3989 37.0274C67.1416 43.7712 70.3559 49.9929 75.4126 54.4735C80.4694 58.9541 87.0043 61.3707 93.737 61.2492C100.47 61.1276 106.915 58.4769 111.809 53.8166C116.703 49.1565 119.694 42.8228 120.197 36.0565L120.212 35.8518L120.014 35.7971C115.139 34.4479 110.744 31.7295 107.342 27.9585L107.156 27.7522L106.97 27.9591C104.486 30.7291 101.453 32.9428 98.0668 34.457C94.6807 35.9712 91.0171 36.7524 87.3129 36.75Z" fill="black" stroke="white" stroke-width="0.5"/>
<path d="M114.352 74.6342V75.2421V81.0001V81.0004C114.348 83.7171 113.276 86.3221 111.369 88.2437C109.463 90.1654 106.877 91.2468 104.18 91.2501H104.18H73.4219C72.6994 91.2501 72.0061 91.5393 71.4946 92.0548C70.983 92.5704 70.6953 93.2701 70.6953 94.0001C70.6953 94.7301 70.983 95.4297 71.4946 95.9453C72.0061 96.4608 72.6994 96.7501 73.4219 96.7501H104.179C108.321 96.7454 112.293 95.085 115.222 92.1324C118.152 89.1799 119.8 85.1762 119.805 80.9998V75.2421V74.6342L120.232 75.0662L121.103 75.946L114.352 74.6342ZM114.352 74.6342L113.924 75.0662M114.352 74.6342L113.924 75.0662M113.924 75.0662L113.053 75.946M113.924 75.0662L113.053 75.946M119.006 66.0545C118.493 65.5413 117.8 65.2537 117.078 65.2537C116.356 65.2537 115.663 65.5413 115.15 66.0545C115.15 66.0546 115.15 66.0547 115.15 66.0548L109.197 72.0542C108.685 72.5699 108.397 73.2698 108.397 74.0001C108.397 74.7303 108.685 75.4302 109.197 75.946C109.709 76.4617 110.402 76.751 111.125 76.751C111.848 76.751 112.541 76.4618 113.053 75.9462C113.053 75.9461 113.053 75.9461 113.053 75.946M119.006 66.0545L113.23 76.1221L113.053 75.946M119.006 66.0545C119.007 66.0546 119.007 66.0547 119.007 66.0548M119.006 66.0545L119.007 66.0548M119.007 66.0548L124.959 72.0542C125.213 72.3095 125.414 72.6128 125.551 72.9467C125.688 73.2806 125.759 73.6385 125.759 74.0001C125.759 74.3616 125.688 74.7196 125.551 75.0535C125.414 75.3874 125.213 75.6906 124.959 75.946C124.706 76.2014 124.405 76.4038 124.074 76.5419C123.744 76.68 123.389 76.751 123.031 76.751C122.673 76.751 122.319 76.68 121.988 76.5419C121.657 76.4038 121.357 76.2015 121.103 75.9462L119.007 66.0548Z" fill="black" stroke="white" stroke-width="0.5"/>
<path d="M6.7686 52.9339L7.19627 53.3659V52.758V47.0003C7.20092 42.8239 8.84912 38.8202 11.7786 35.8676C14.7081 32.9152 18.6794 31.2547 22.8214 31.25H53.5791C54.3016 31.25 54.9949 31.5393 55.5064 32.0548C56.0179 32.5703 56.3056 33.27 56.3056 34C56.3056 34.73 56.0179 35.4297 55.5064 35.9452C54.9949 36.4607 54.3016 36.75 53.5791 36.75H22.8213H22.821C20.1237 36.7533 17.5381 37.8347 15.6315 39.7564C13.7248 41.678 12.6526 44.2829 12.6494 46.9997V47V52.758V53.3659L13.0771 52.9339L13.948 52.0541C13.948 52.0541 13.948 52.054 13.9481 52.054C14.4597 51.5384 15.1532 51.249 15.876 51.249C16.5987 51.249 17.2922 51.5384 17.8039 52.0541C18.3156 52.5698 18.6035 53.2698 18.6035 54C18.6035 54.7302 18.3156 55.4302 17.8039 55.9459L11.8514 61.9453C11.8513 61.9454 11.8511 61.9456 11.851 61.9457C11.3379 62.4588 10.6448 62.7464 9.92283 62.7464C9.2009 62.7464 8.50784 62.4589 7.99477 61.9458C7.99459 61.9456 7.99441 61.9455 7.99423 61.9453L2.04175 55.9459C1.53002 55.4302 1.24219 54.7302 1.24219 54C1.24219 53.2698 1.53002 52.5698 2.04175 52.0541C2.55341 51.5384 3.24696 51.249 3.9697 51.249C4.69245 51.249 5.386 51.5384 5.89766 52.0541L6.7686 52.9339Z" fill="black" stroke="white" stroke-width="0.5"/>
<path d="M101.146 44.0548C101.658 44.5703 101.945 45.27 101.945 46C101.945 48.3213 101.03 50.5471 99.4024 52.1879C97.7745 53.8286 95.567 54.75 93.2656 54.75C90.9643 54.75 88.7568 53.8286 87.1289 52.1879C85.5009 50.5471 84.5859 48.3213 84.5859 46C84.5859 45.27 84.8737 44.5703 85.3852 44.0548C85.8967 43.5393 86.59 43.25 87.3125 43.25C88.035 43.25 88.7283 43.5393 89.2398 44.0548C89.7513 44.5703 90.0391 45.27 90.0391 46C90.0391 46.8613 90.3785 47.6878 90.9834 48.2974C91.5884 48.9071 92.4093 49.25 93.2656 49.25C94.122 49.25 94.9429 48.9071 95.5478 48.2974C96.1527 47.6878 96.4922 46.8613 96.4922 46C96.4922 45.27 96.7799 44.5703 97.2915 44.0548C97.803 43.5393 98.4963 43.25 99.2188 43.25C99.9412 43.25 100.635 43.5393 101.146 44.0548Z" fill="black" stroke="white" stroke-width="0.5"/>
</svg>
